<mxfile host="app.diagrams.net" modified="2022-12-27T13:51:27.779Z" agent="5.0 (Windows NT 10.0; Win64; x64) AppleWebKit/537.36 (KHTML, like Gecko) Chrome/108.0.0.0 Safari/537.36" etag="q7Tzsr3ic0TpJNAYlMp-" version="20.7.4" type="github">
  <diagram name="Page-1" id="74e2e168-ea6b-b213-b513-2b3c1d86103e">
    <mxGraphModel dx="864" dy="433" grid="1" gridSize="10" guides="1" tooltips="1" connect="1" arrows="1" fold="1" page="1" pageScale="1" pageWidth="1100" pageHeight="850" background="none" math="0" shadow="0">
      <root>
        <mxCell id="0" />
        <mxCell id="1" parent="0" />
        <mxCell id="77e6c97f196da883-1" value="Pool" style="swimlane;html=1;childLayout=stackLayout;startSize=20;rounded=0;shadow=0;labelBackgroundColor=none;strokeWidth=1;fontFamily=Verdana;fontSize=8;align=center;" parent="1" vertex="1">
          <mxGeometry x="150" y="230" width="880" height="910" as="geometry" />
        </mxCell>
        <mxCell id="-I9NjeETSfSGLJqM6EGI-1" value="" style="edgeStyle=none;html=1;fontSize=16;" edge="1" parent="1" source="-I9NjeETSfSGLJqM6EGI-2" target="-I9NjeETSfSGLJqM6EGI-4">
          <mxGeometry relative="1" as="geometry" />
        </mxCell>
        <mxCell id="-I9NjeETSfSGLJqM6EGI-2" value="begin" style="ellipse;whiteSpace=wrap;html=1;strokeWidth=1;fontSize=16;" vertex="1" parent="1">
          <mxGeometry x="480" y="460" width="200" height="50" as="geometry" />
        </mxCell>
        <mxCell id="-I9NjeETSfSGLJqM6EGI-3" value="" style="edgeStyle=none;html=1;fontSize=16;" edge="1" parent="1" source="-I9NjeETSfSGLJqM6EGI-4" target="-I9NjeETSfSGLJqM6EGI-7">
          <mxGeometry relative="1" as="geometry" />
        </mxCell>
        <mxCell id="-I9NjeETSfSGLJqM6EGI-4" value="inputArray[] = {&quot;hello&quot;, &quot;2&quot;, &quot;world&quot;, &quot;:-)&quot;}&lt;br&gt;outputArray[] = {}&lt;br&gt;inputIndex = &lt;font face=&quot;Roboto Mono&quot; data-font-src=&quot;https://fonts.googleapis.com/css?family=Roboto+Mono&quot;&gt;0&lt;/font&gt;&lt;br&gt;outputIndex = &lt;font face=&quot;Roboto Mono&quot; data-font-src=&quot;https://fonts.googleapis.com/css?family=Roboto+Mono&quot;&gt;0&lt;/font&gt;" style="shape=parallelogram;perimeter=parallelogramPerimeter;whiteSpace=wrap;html=1;fixedSize=1;fontSize=16;strokeWidth=1;" vertex="1" parent="1">
          <mxGeometry x="400" y="530" width="360" height="100" as="geometry" />
        </mxCell>
        <mxCell id="-I9NjeETSfSGLJqM6EGI-5" value="" style="edgeStyle=none;html=1;fontSize=16;" edge="1" parent="1" source="-I9NjeETSfSGLJqM6EGI-7" target="-I9NjeETSfSGLJqM6EGI-10">
          <mxGeometry relative="1" as="geometry" />
        </mxCell>
        <mxCell id="-I9NjeETSfSGLJqM6EGI-6" style="edgeStyle=none;html=1;fontSize=16;entryX=0.5;entryY=0;entryDx=0;entryDy=0;" edge="1" parent="1" source="-I9NjeETSfSGLJqM6EGI-7" target="-I9NjeETSfSGLJqM6EGI-21">
          <mxGeometry relative="1" as="geometry">
            <mxPoint x="1000" y="710" as="targetPoint" />
            <Array as="points">
              <mxPoint x="926" y="700" />
            </Array>
          </mxGeometry>
        </mxCell>
        <mxCell id="-I9NjeETSfSGLJqM6EGI-7" value="inputIndex&amp;nbsp;&amp;lt; inputArray.Lenght" style="rhombus;whiteSpace=wrap;html=1;fontSize=16;strokeWidth=1;" vertex="1" parent="1">
          <mxGeometry x="400" y="670" width="360" height="60" as="geometry" />
        </mxCell>
        <mxCell id="-I9NjeETSfSGLJqM6EGI-8" value="" style="edgeStyle=none;html=1;fontSize=16;" edge="1" parent="1" source="-I9NjeETSfSGLJqM6EGI-10" target="-I9NjeETSfSGLJqM6EGI-12">
          <mxGeometry relative="1" as="geometry" />
        </mxCell>
        <mxCell id="-I9NjeETSfSGLJqM6EGI-9" style="edgeStyle=none;html=1;fontSize=16;" edge="1" parent="1" source="-I9NjeETSfSGLJqM6EGI-10">
          <mxGeometry relative="1" as="geometry">
            <mxPoint x="580" y="1040" as="targetPoint" />
            <Array as="points">
              <mxPoint x="790" y="795" />
              <mxPoint x="790" y="1040" />
            </Array>
          </mxGeometry>
        </mxCell>
        <mxCell id="-I9NjeETSfSGLJqM6EGI-10" value="inputArray[inputIndex].Lenght &amp;lt;= 3" style="rhombus;whiteSpace=wrap;html=1;fontSize=16;strokeWidth=1;" vertex="1" parent="1">
          <mxGeometry x="400" y="760" width="360" height="70" as="geometry" />
        </mxCell>
        <mxCell id="-I9NjeETSfSGLJqM6EGI-11" value="" style="edgeStyle=none;html=1;fontSize=16;" edge="1" parent="1" source="-I9NjeETSfSGLJqM6EGI-12" target="-I9NjeETSfSGLJqM6EGI-14">
          <mxGeometry relative="1" as="geometry" />
        </mxCell>
        <mxCell id="-I9NjeETSfSGLJqM6EGI-12" value="&lt;span&gt;outputArray[&lt;/span&gt;outputIndex&lt;span&gt;] = inputArray[&lt;/span&gt;inputIndex&lt;span&gt;]&amp;nbsp;&lt;/span&gt;" style="rounded=1;whiteSpace=wrap;html=1;fontSize=16;strokeWidth=1;" vertex="1" parent="1">
          <mxGeometry x="455" y="862" width="250" height="90" as="geometry" />
        </mxCell>
        <mxCell id="-I9NjeETSfSGLJqM6EGI-13" value="" style="edgeStyle=none;html=1;fontSize=16;" edge="1" parent="1" source="-I9NjeETSfSGLJqM6EGI-14" target="-I9NjeETSfSGLJqM6EGI-16">
          <mxGeometry relative="1" as="geometry" />
        </mxCell>
        <mxCell id="-I9NjeETSfSGLJqM6EGI-14" value="outputIndex&lt;span&gt;&amp;nbsp;=&amp;nbsp;&lt;/span&gt;outputIndex +1" style="rounded=1;whiteSpace=wrap;html=1;fontSize=16;strokeWidth=1;" vertex="1" parent="1">
          <mxGeometry x="455" y="982" width="250" height="40" as="geometry" />
        </mxCell>
        <mxCell id="-I9NjeETSfSGLJqM6EGI-15" style="edgeStyle=none;html=1;fontSize=16;" edge="1" parent="1" source="-I9NjeETSfSGLJqM6EGI-16">
          <mxGeometry relative="1" as="geometry">
            <mxPoint x="580" y="650" as="targetPoint" />
            <Array as="points">
              <mxPoint x="580" y="1130" />
              <mxPoint x="380" y="1130" />
              <mxPoint x="380" y="650" />
            </Array>
          </mxGeometry>
        </mxCell>
        <mxCell id="-I9NjeETSfSGLJqM6EGI-16" value="inputIndex = inputIndex +1" style="rounded=1;whiteSpace=wrap;html=1;fontSize=16;strokeWidth=1;" vertex="1" parent="1">
          <mxGeometry x="455" y="1059" width="250" height="40" as="geometry" />
        </mxCell>
        <mxCell id="-I9NjeETSfSGLJqM6EGI-17" value="YES" style="text;html=1;align=center;verticalAlign=middle;resizable=0;points=[];autosize=1;strokeColor=none;fillColor=none;fontSize=16;" vertex="1" parent="1">
          <mxGeometry x="575" y="830" width="50" height="20" as="geometry" />
        </mxCell>
        <mxCell id="-I9NjeETSfSGLJqM6EGI-18" value="YES" style="text;html=1;align=center;verticalAlign=middle;resizable=0;points=[];autosize=1;strokeColor=none;fillColor=none;fontSize=16;" vertex="1" parent="1">
          <mxGeometry x="575" y="730" width="50" height="20" as="geometry" />
        </mxCell>
        <mxCell id="-I9NjeETSfSGLJqM6EGI-19" value="end" style="ellipse;whiteSpace=wrap;html=1;fontSize=16;strokeWidth=1;" vertex="1" parent="1">
          <mxGeometry x="866" y="812" width="120" height="50" as="geometry" />
        </mxCell>
        <mxCell id="-I9NjeETSfSGLJqM6EGI-20" style="edgeStyle=none;html=1;entryX=0.5;entryY=0;entryDx=0;entryDy=0;fontSize=16;" edge="1" parent="1" source="-I9NjeETSfSGLJqM6EGI-21" target="-I9NjeETSfSGLJqM6EGI-19">
          <mxGeometry relative="1" as="geometry" />
        </mxCell>
        <mxCell id="-I9NjeETSfSGLJqM6EGI-21" value="print outputArray" style="rounded=1;whiteSpace=wrap;html=1;fontSize=16;strokeWidth=1;" vertex="1" parent="1">
          <mxGeometry x="826" y="730" width="200" height="50" as="geometry" />
        </mxCell>
        <mxCell id="-I9NjeETSfSGLJqM6EGI-22" value="NO" style="text;html=1;align=center;verticalAlign=middle;resizable=0;points=[];autosize=1;strokeColor=none;fillColor=none;fontSize=16;" vertex="1" parent="1">
          <mxGeometry x="754" y="680" width="40" height="20" as="geometry" />
        </mxCell>
        <mxCell id="-I9NjeETSfSGLJqM6EGI-23" value="NO" style="text;html=1;align=center;verticalAlign=middle;resizable=0;points=[];autosize=1;strokeColor=none;fillColor=none;fontSize=16;" vertex="1" parent="1">
          <mxGeometry x="754" y="774" width="40" height="20" as="geometry" />
        </mxCell>
      </root>
    </mxGraphModel>
  </diagram>
</mxfile>
